#!OML:ASF F:\VICON\USERDATA\INSTALL\SteveWalk\SteveWalk.ASF
:FULLY-SPECIFIED
:DEGREES
227
root 0.0504568 15.9951 4.62435 19.022 7.77107 3.70674
lowerback -14.8052 -3.95656 -0.520524
upperback -5.16851 -5.1804 0.962378
thorax 2.94162 -2.56379 0.414395
lowerneck -6.49961 -0.166181 0.420697
upperneck 4.90524 -0.252318 -0.129634
head 2.68602 -0.121676 -0.125298
rclavicle 8.36138e-015 -6.75868e-015
rhumerus -94.3532 -33.1359 5.47236
rradius 11.5724
rwrist 53.556
rhand -13.7222 -35.0407
rfingers 7.12502
rthumb 12.397 -64.6531
lclavicle 8.36138e-015 -6.75868e-015
lhumerus -10.0879 -6.70544 77.452
lradius 57.7209
lwrist 11.7149
lhand -23.1702 -20.8388
lfingers 7.12502
lthumb 3.27873 9.11578
rfemur -50.8089 -6.39036 19.1861
rtibia 20.9811
rfoot -6.76808 1.88774
rtoes -32.4557
lfemur 0.992922 -0.203307 -21.1669
ltibia 20.6914
lfoot -19.0401 -11.4241
ltoes -30.3928
228
root 0.0349009 15.9815 4.86808 19.1478 6.75478 3.73441
lowerback -14.7145 -3.67603 -0.621482
upperback -5.3708 -4.79831 1.01466
thorax 2.68738 -2.37383 0.605197
lowerneck -6.41622 -0.11423 0.481956
upperneck 4.8705 -0.163263 -0.525507
head 2.659 -0.0897204 -0.258838
rclavicle -4.13721e-015 9.14409e-015
rhumerus -94.9872 -32.9438 7.02058
rradius 11.5034
rwrist 54.7277
rhand -13.9096 -35.4215
rfingers 7.12502
rthumb 12.2163 -65.0447
lclavicle -4.13721e-015 9.14409e-015
lhumerus -10.8984 -6.24088 77.591
lradius 58.4447
lwrist 12.2202
lhand -23.3313 -21.3531
lfingers 7.12502
lthumb 3.12319 8.60378
rfemur -51.32 -5.09844 18.6143
rtibia 22.6411
rfoot -4.0423 2.72773
rtoes -28.0169
lfemur 1.07811 -0.487392 -21.511
ltibia 21.7904
lfoot -18.4966 -10.3209
ltoes -34.6416
229
root 0.00961248 15.9692 5.10895 19.6096 5.15193 3.38421
lowerback -15.0932 -3.20541 -0.567687
upperback -5.571 -4.1894 1.17972
thorax 2.67597 -2.07012 0.836654
lowerneck -6.21197 -0.0465162 0.574352
upperneck 4.5487 -0.0577556 -0.917737
head 2.51407 -0.0480705 -0.394585
rclavicle -5.69394e-014 -7.55382e-015
rhumerus -95.0688 -32.9889 7.54803
rradius 11.4948
rwrist 55.1848
rhand -14.2276 -35.6378
rfingers 7.12502
rthumb 11.9096 -65.279
lclavicle -5.69394e-014 -7.55382e-015
lhumerus -11.7772 -5.65393 77.6858
lradius 59.2161
lwrist 12.6817
lhand -23.498 -21.707
lfingers 7.12502
lthumb 2.96214 8.25217
rfemur -52.3779 -3.17 18.3408
rtibia 24.4246
rfoot -2.66452 3.25559
rtoes -25.8915
lfemur 0.343535 -0.322872 -21.6941
ltibia 23.4082
lfoot -15.7745 -11.0918
ltoes -31.3752
230
root 0.00171389 15.9776 5.35354 19.8509 4.66763 2.38354
lowerback -15.4206 -2.93449 0.580998
upperback -5.63962 -4.01294 1.54855
thorax 2.7235 -1.98808 0.594597
lowerneck -6.4607 0.0581902 0.735943
upperneck 4.53656 0.0966032 -1.41933
head 2.55979 0.0145634 -0.577593
rclavicle 2.20403e-014 -3.18055e-015
rhumerus -95.0062 -33.3262 7.90846
rradius 11.5103
rwrist 55.624
rhand -14.598 -35.9031
rfingers 7.12502
rthumb 11.5524 -65.5647
lclavicle 2.20403e-014 -3.18055e-015
lhumerus -12.6927 -4.96981 77.7878
lradius 59.9382
lwrist 13.113
lhand -23.7823 -21.8559
lfingers 7.12502
lthumb 2.68757 8.1069
rfemur -52.882 -2.09714 19.0258
rtibia 26.2213
rfoot -2.52008 3.30674
rtoes -28.0165
lfemur -0.552789 -0.53046 -20.8277
ltibia 25.533
lfoot -11.438 -12.425
ltoes -23.3568
231
root -0.0323511 15.9587 5.59984 20.0529 3.36111 2.38247
lowerback -15.6025 -2.68811 0.204407
upperback -5.73518 -3.64024 1.67324
thorax 2.74724 -1.79967 0.995526
lowerneck -6.97511 0.237787 0.94888
upperneck 5.00677 0.354967 -1.97304
head 2.82259 0.124591 -0.786112
rclavicle 3.516e-014 -1.59028e-015
rhumerus -95.6675 -33.6534 9.68801
rradius 11.4272
rwrist 57.4594
rhand -14.5723 -36.1276
rfingers 7.12502
rthumb 11.5772 -65.7878
lclavicle 3.516e-014 -1.59028e-015
lhumerus -13.8042 -4.21755 77.9399
lradius 60.4984
lwrist 13.3449
lhand -23.9492 -21.8526
lfingers 7.12502
lthumb 2.52638 8.11216
rfemur -53.3317 0.258268 17.8377
rtibia 27.9613
rfoot -2.51851 2.20604
rtoes -31.7115
lfemur -1.54515 -0.323246 -21.2377
ltibia 28.0677
lfoot -9.72772 -12.3232
ltoes -27.2637
232
root 0.0159745 15.9798 5.84303 19.6941 4.22046 1.7158
lowerback -15.1317 -2.70899 2.11744
upperback -5.8001 -3.93696 1.79609
thorax 2.31344 -1.96644 0.0275699
lowerneck -7.11127 0.423426 1.04813
upperneck 5.30239 0.629534 -2.44624
head 2.95834 0.243812 -0.946933
rclavicle -7.70291e-015 5.56597e-015
rhumerus -96.8685 -33.8967 12.315
rradius 11.3495
rwrist 60.0374
rhand -14.6734 -35.9205
rfingers 7.12502
rthumb 11.4798 -65.5861
lclavicle -7.70291e-015 5.56597e-015
lhumerus -15.1184 -3.52789 78.0861
lradius 61.0222
lwrist 13.5633
lhand -24.0654 -21.8393
lfingers 7.12502
lthumb 2.41423 8.12678
rfemur -52.8816 -1.04505 19.1988
rtibia 29.8233
rfoot -3.32562 2.89331
rtoes -30.3824
lfemur -1.97675 -1.20806 -20.4828
ltibia 30.7338
lfoot -5.62653 -12.9506
ltoes -21.5044
233
root 0.0364948 15.9984 6.08907 19.3385 4.49342 0.964059
lowerback -14.7284 -2.61439 3.57691
upperback -5.75217 -4.00697 1.97691
thorax 2.05706 -2.0184 -0.589093
lowerneck -7.27543 0.576399 1.11602
upperneck 5.36052 0.855177 -2.84042
head 3.01882 0.341117 -1.0779
rclavicle -1.21259e-014 1.11319e-014
rhumerus -97.2695 -34.4345 13.1603
rradius 11.417
rwrist 60.9732
rhand -14.9441 -36.2169
rfingers 7.12502
rthumb 11.2186 -65.8969
lclavicle -1.21259e-014 1.11319e-014
lhumerus -16.3192 -3.00014 78.1521
lradius 61.5337
lwrist 13.895
lhand -24.3889 -21.729
lfingers 7.12502
lthumb 2.1018 8.24036
rfemur -52.5645 -1.49555 20.3997
rtibia 31.6677
rfoot -3.84806 3.08227
rtoes -26.5803
lfemur -2.61921 -1.54641 -19.7359
ltibia 33.4973
lfoot -0.19629 -12.9563
ltoes -12.5336
